# xmcd
#
# Track frame offsets:
#   150
#   9287
#   24502
#   39282
#   49303
#   63178
#   78357
#   98822
#   109893
#   126561
#   143016
#   153975
#   167023
#   176105
#   187006
#   202419
#   209973
#   228385
#   236895
#   251193
#   264186
#
# Disc length: 3666 seconds
#
# Revision: 0
# Processed by: cddbd v1.5PL3 Copyright (c) Steve Scherf et al.
# Submitted via: Media_Universe 3.0
#
DISCID=320e5015
DTITLE=David Allen Coe - David Aleen Coe
DYEAR=1900
DGENRE=Country
TTITLE0=Rodeo Song
TTITLE1=Jack Daniels If You Please
TTITLE2=Asshole Song
TTITLE3=Fuck The Shit Outta Ya
TTITLE4=Divers Do It Deeper
TTITLE5=Cum Stains On The Pillow
TTITLE6=Up Against The Wall Red Necke Mother Fucker
TTITLE7=West Virginian Man
TTITLE8=Mona Lisa Lost Her Smile
TTITLE9=Coon Shootin' Boogie
TTITLE10=White Girl With A Nigger
TTITLE11=Would You Lay With Me
TTITLE12=Long Haired Red Neck
TTITLE13=No Niggers In Our Schools
TTITLE14=Texas Lullaby
TTITLE15=Drink My Wife
TTITLE16=The Ride
TTITLE17=This Bottle In My Hand
TTITLE18=
TTITLE19=
TTITLE20=
EXTD=
EXTT0=
EXTT1=
EXTT2=
EXTT3=
EXTT4=
EXTT5=
EXTT6=
EXTT7=
EXTT8=
EXTT9=
EXTT10=
EXTT11=
EXTT12=
EXTT13=
EXTT14=
EXTT15=
EXTT16=
EXTT17=
EXTT18=
EXTT19=
EXTT20=
PLAYORDER=
